<svg xmlns="http://www.w3.org/2000/svg" xmlns:xlink="http://www.w3.org/1999/xlink" width="296.84" height="48.082" viewBox="0 0 296.84 48.082">
  <defs>
    <clipPath id="clip-path">
      <rect width="62.916" height="43.082" fill="none"/>
    </clipPath>
  </defs>
  <g id="logo" transform="translate(-9.046 -7)">
    <text id="渋谷のコーディング専門プロダクション" transform="translate(89.886 48)" fill="#707f89" font-size="12" font-family="SourceHanSansJP-Normal, Source Han Sans JP"><tspan x="0" y="0">渋谷のコーディング専門プロダクション</tspan></text>
    <text id="株式会社FLAT" transform="translate(89.886 30)" fill="#3b4043" font-size="20" font-family="SourceHanSansJP-Bold, Source Han Sans JP" font-weight="700"><tspan x="0" y="0">株式会社FLAT</tspan></text>
    <g id="logo-2" data-name="logo" transform="translate(9.046 12)" clip-path="url(#clip-path)">
      <path id="パス_754" data-name="パス 754" d="M468.166,350.912a17.438,17.438,0,0,0-3.613-6.31,13.675,13.675,0,0,0-6.333-3.964,29.307,29.307,0,0,0-8.786-1.228H430.512L422.1,351.593l-8.171-12.182h-7.7l12.045,17.52-12.045,17.433h7.7l8.171-12.092,8.408,12.092h7.463L425.884,356.93l7.92-11.478h15.631q6.855,0,10.155,3.59a11.592,11.592,0,0,1,2.295,3.708,11.935,11.935,0,0,1,.779,4.231,12.947,12.947,0,0,1-.708,4.105,10.087,10.087,0,0,1-2.271,3.779q-3.212,3.448-10.057,3.448h-2.082V353.281h-6.471v21.082h8.412a26.663,26.663,0,0,0,9.022-1.279,15.427,15.427,0,0,0,6.089-4.058,16.922,16.922,0,0,0,3.334-5.459,19.436,19.436,0,0,0,1.2-7.01A20.163,20.163,0,0,0,468.166,350.912Z" transform="translate(-406.234 -339.41)" fill="#004bb1"/>
    </g>
  </g>
</svg>
